# xmcd
#
# Track frame offsets: 
#        183
#        15020
#        31823
#        44243
#        57623
#        70603
#        84535
#        99540
#        114618
#        125120
#        136180
#        149868
#        162380
#        174533
#        186248
#        203943
#        217243
#        228253
#        242260
#        253908
#
# Disc length: 3648 seconds
#
# Revision: 8
# Processed by: cddbd v1.5.2PL0 Copyright (c) Steve Scherf et al.
# Submitted via: ExactAudioCopy v1.3
#
DISCID=2d0e3e14
DTITLE=Glen Campbell - Twenty Golden Greats
DYEAR=1987
DGENRE=Country
TTITLE0=Rhinestone Cowboy (1975)
TTITLE1=Both Sides Now (1971)
TTITLE2=By The Time I Get To Phoenix (1969)
TTITLE3=Gentle On My Mind (1967)
TTITLE4=Too Many Mornings (1974)
TTITLE5=Wichita Lineman (1968)
TTITLE6=One Last Time (1972)
TTITLE7=Don't Pull Your Love - Then You Can Tell Me Goodbye (1976)
TTITLE8=Reason To Believe (1969)
TTITLE9=It's Only Make Believe (1970)
TTITLE10=Honey Come Back (1970)
TTITLE11=Give Me Back That Old Familiar Feeling (1973)
TTITLE12=Galveston (1969)
TTITLE13=Dreams Of The Everyday Housewife (1969)
TTITLE14=The Last Thing On My Mind (1972)
TTITLE15=Where's The Playground, Susie (1969)
TTITLE16=Try A Little Kindness (1970)
TTITLE17=Country Boy (You Got Your Feet In L.A.) (1975)
TTITLE18=Bobbie Gentry, Glen Campbell - All I Have To Do Is Dream (196
TTITLE18=9)
TTITLE19=Amazing Grace (1973)
EXTD=YEAR: 1987 ID3G: 2
EXTT0=
EXTT1=
EXTT2=
EXTT3=
EXTT4=
EXTT5=
EXTT6=
EXTT7=
EXTT8=
EXTT9=
EXTT10=
EXTT11=
EXTT12=
EXTT13=
EXTT14=
EXTT15=
EXTT16=
EXTT17=
EXTT18=
EXTT19=
PLAYORDER=
